 <svg
              width="32"
              height="32"
              viewBox="0 0 24 24"
              fill="#343538"
              xmlns="http://www.w3.org/2000/svg"
              size="32"
              color="systemGrayscale70"
              aria-hidden="true"
              class="e-3pclmc"
            >
              <path
                fill-rule="evenodd"
                clip-rule="evenodd"
                d="m17 3 4 8v9a1 1 0 0 1-1 1h-2a1 1 0 0 1-1-1v-2H7v2a1 1 0 0 1-1 1H4a1 1 0 0 1-1-1v-9l4-8zm.764 6H6.236l2-4h7.528zM19 13.5a1.5 1.5 0 1 1-3 0 1.5 1.5 0 0 1 3 0M6.5 15a1.5 1.5 0 1 0 0-3 1.5 1.5 0 0 0 0 3"
              ></path>
            </svg>