 <svg
                          width="32"
                          height="32"
                          viewBox="0 0 24 24"
                          fill="#343538"
                          xmlns="http://www.w3.org/2000/svg"
                          size="32"
                          color="systemGrayscale70"
                          aria-hidden="true"
                          class="e-3pclmc"
                        >
                          <path
                            fill-rule="evenodd"
                            clip-rule="evenodd"
                            d="M11.988 3.311q.14-.176.303-.341c.65-.65 1.5-.97 2.35-.97h.01c.85 0 1.7.32 2.35.97A3.304 3.304 0 0 1 17.514 7H21v4h-8V7h-2v4H3V7h3.462a3.304 3.304 0 0 1 .513-4.03c.65-.65 1.5-.97 2.35-.97h.01c.85 0 1.7.32 2.35.97q.164.165.303.341M3 13v9h8v-9zm10 9h8v-9h-8zM8.384 4.39a1.307 1.307 0 0 0 .002 1.853c.497.489 1.28.707 2.229.707q.18 0 .352-.01.01-.162.01-.336c0-.947-.219-1.733-.706-2.22A1.3 1.3 0 0 0 9.335 4h-.01c-.347 0-.68.128-.936.384zm7.208 0c.508.503.517 1.33-.002 1.853-.497.489-1.28.707-2.229.707q-.18 0-.352-.01A6 6 0 0 1 13 6.604c-.001-.947.218-1.733.706-2.22.255-.256.588-.384.935-.384h.01c.348 0 .68.128.936.384z"
                          ></path>
                        </svg>