<svg
                          width="32"
                          height="32"
                          viewBox="0 0 32 32"
                          fill="#343538"
                          xmlns="http://www.w3.org/2000/svg"
                          size="32"
                          color="systemGrayscale70"
                          aria-hidden="true"
                          class="e-3pclmc"
                        >
                          <path
                            d="M14.553 9.873c.592-.85 1.233-1.243 2.134-1.243 1.358 0 2.262 1.002 2.267 2.236.004 1.057-.496 1.745-1.547 2.422l-6.597 4.244-6.597-4.244c-1.05-.677-1.55-1.365-1.546-2.422.004-1.234.909-2.236 2.267-2.236.9 0 1.542.392 2.134 1.243l1.706 2.448V5.333h4.072v6.988zM17.936 25.665c.008-4.194-3.206-7.116-7.127-7.116s-7.133 2.924-7.125 7.116z"
                            fill="#750046"
                          ></path>
                          <path
                            d="M29.333 15.879H25.03v-4.297h-3.462v4.297h-4.302v3.425h4.302v4.297h3.462v-4.297h4.302z"
                            fill="#EC269A"
                          ></path>
                        </svg>