<svg
                                width="1em"
                                height="1em"
                                viewBox="0 0 24 24"
                                fill="#242529"
                                xmlns="http://www.w3.org/2000/svg"
                                color="systemGrayscale80"
                                class="e-2bhlo8"
                                aria-hidden="true"
                              >
                                <path
                                  fill-rule="evenodd"
                                  clip-rule="evenodd"
                                  d="M20 3H4v2c.801 0 1.281.32 1.698.706L3 12v8a1 1 0 0 0 1 1h2a1 1 0 0 0 1-1v-2h10v2a1 1 0 0 0 1 1h2a1 1 0 0 0 1-1v-8l-2.698-6.294C18.72 5.32 19.2 5 20 5zM7.319 7 6 10.077V15h3V9h6v6h3v-4.923L16.681 7z"
                                ></path>
                              </svg>