<svg
                                    width="18"
                                    height="18"
                                    viewBox="0 0 24 24"
                                    fill="#343538"
                                    xmlns="http://www.w3.org/2000/svg"
                                    size="18"
                                    color="systemGrayscale70"
                                    aria-hidden="true"
                                  >
                                    <path
                                      fill-rule="evenodd"
                                      clip-rule="evenodd"
                                      d="M7 6V5a3 3 0 0 1 3-3h4a3 3 0 0 1 3 3v1h4v2h-2l-1 14H6L5 8H3V6zm3-2h4a1 1 0 0 1 1 1v1H9V5a1 1 0 0 1 1-1m3 15v-8h2v8zm-2-8H9v8h2z"
                                    ></path>
                                  </svg>